# File created by Blade
# Date/Time:  Thu Jan 22 16:21:39 2015
# Frame Rate: 120.000 fps
#------------------------------------------------------
:FULLY-SPECIFIED
:DEGREES
1646
root -6.748377 36.340612 1.484943 0.328435 30.896280 -3.931326
RightUpLeg -13.165982 -8.044180 14.542973
RightLeg 13.873062 -0.000000 -0.000000
RightFoot -17.506283 -29.373064 13.178384
RightToeBase 8.479661 -0.000000 -0.000000
LeftUpLeg 12.611888 9.053914 -8.158138
LeftLeg 28.900218 -0.000000 -0.000000
LeftFoot 5.902453 -6.135026 -34.733970
LeftToeBase 3.899974 -0.000000 -0.000000
Spine 18.425921 -23.136837 2.361973
RightShoulder -8.581343 -15.832261 -19.697779
RightArm 5.955104 29.205913 58.040772
RightForeArm 14.066819 -0.000000 29.472355
RightHand 7.534633 0.000000 -18.135041
RightHandThumb1 -24.326973 -0.000000 -32.862282
LeftShoulder -21.201618 31.959722 18.789449
LeftArm 55.610145 -43.048393 -52.447697
LeftForeArm 42.981560 -0.000000 25.144759
LeftHand -13.036310 0.000000 -0.152914
LeftHandThumb1 -26.253704 0.000000 33.147579
Head 7.930998 2.479189 12.913446
1647
root -6.652376 36.382115 1.537972 0.409478 31.045170 -3.654156
RightUpLeg -12.893191 -8.085739 14.177821
RightLeg 13.722570 -0.000000 -0.000000
RightFoot -17.374605 -29.461622 13.026581
RightToeBase 8.139403 -0.000000 -0.000000
LeftUpLeg 11.881759 9.873503 -7.476768
LeftLeg 30.794289 -0.000000 -0.000000
LeftFoot 5.069097 -6.996304 -33.940636
LeftToeBase 3.069259 -0.000000 -0.000000
Spine 18.436566 -23.105253 1.983988
RightShoulder -8.579994 -15.896560 -19.612582
RightArm 5.964371 28.852423 58.183409
RightForeArm 13.779935 -0.000000 29.231373
RightHand 7.431732 -0.000000 -18.143849
RightHandThumb1 -24.326973 -0.000000 -32.862282
LeftShoulder -21.171473 32.085946 18.570499
LeftArm 55.595753 -42.600490 -52.466985
LeftForeArm 43.210235 -0.000000 24.922428
LeftHand -13.064775 -0.000000 -0.284456
LeftHandThumb1 -26.253704 0.000000 33.147579
Head 7.983037 2.310323 12.700641
1648
root -6.551183 36.419489 1.589044 0.483036 31.190960 -3.339782
RightUpLeg -12.565851 -8.151868 13.779542
RightLeg 13.485174 -0.000000 -0.000000
RightFoot -17.405412 -29.561963 13.034373
RightToeBase 8.103997 -0.000000 -0.000000
LeftUpLeg 11.163305 10.528164 -6.887264
LeftLeg 32.663792 -0.000000 -0.000000
LeftFoot 4.143717 -7.733492 -33.138112
LeftToeBase 1.626137 -0.000000 -0.000000
Spine 18.450238 -23.056445 1.578536
RightShoulder -8.583619 -16.084721 -19.540459
RightArm 6.076571 28.557640 58.380944
RightForeArm 13.636586 -0.000000 29.029673
RightHand 7.513398 0.000000 -17.905762
RightHandThumb1 -24.326973 -0.000000 -32.862282
LeftShoulder -21.050054 32.210308 18.460219
LeftArm 55.506374 -42.150375 -52.571832
LeftForeArm 43.314887 -0.000000 24.797727
LeftHand -13.194662 -0.000000 -0.206299
LeftHandThumb1 -26.253704 0.000000 33.147579
Head 8.080377 2.242752 12.416144
1649
root -6.455640 36.457878 1.636857 0.570631 31.349499 -3.078450
RightUpLeg -12.294813 -8.306165 13.441579
RightLeg 13.292186 -0.000000 -0.000000
RightFoot -17.267525 -29.583004 12.847696
RightToeBase 7.845588 -0.000000 -0.000000
LeftUpLeg 10.371908 11.011770 -6.299728
LeftLeg 34.514596 -0.000000 -0.000000
LeftFoot 3.136860 -8.320337 -32.395617
LeftToeBase -0.106853 -0.000000 0.000000
Spine 18.416560 -23.051029 1.276010
RightShoulder -8.572463 -16.100719 -19.524441
RightArm 6.035560 28.250893 58.499665
RightForeArm 13.394390 0.000000 28.853157
RightHand 7.527739 -0.000000 -17.965012
RightHandThumb1 -24.326973 -0.000000 -32.862282
LeftShoulder -21.046880 32.384953 18.182692
LeftArm 55.588219 -41.784636 -52.694499
LeftForeArm 43.333960 0.000000 24.551574
LeftHand -13.129254 -0.000000 -0.158940
LeftHandThumb1 -26.253704 0.000000 33.147579
Head 8.121625 2.138405 12.062500
1650
root -6.355710 36.494374 1.680658 0.671013 31.460536 -2.781710
RightUpLeg -12.016979 -8.413054 13.048901
RightLeg 13.101503 -0.000000 -0.000000
RightFoot -17.215717 -29.542271 12.752736
RightToeBase 7.724043 -0.000000 -0.000000
LeftUpLeg 9.601977 11.386085 -5.812740
LeftLeg 36.248763 -0.000000 -0.000000
LeftFoot 1.989400 -8.568362 -31.687518
LeftToeBase -1.546970 -0.000000 0.000000
Spine 18.385165 -22.978633 0.949404
RightShoulder -8.592131 -16.197350 -19.499255
RightArm 6.116089 28.017518 58.657727
RightForeArm 13.245338 -0.000000 28.620603
RightHand 7.595283 -0.000000 -17.813105
RightHandThumb1 -24.326973 -0.000000 -32.862282
LeftShoulder -21.056853 32.555014 17.967694
LeftArm 55.831354 -41.440569 -53.121867
LeftForeArm 43.419695 -0.000000 24.383288
LeftHand -13.150034 -0.000000 -0.286401
LeftHandThumb1 -26.253704 0.000000 33.147579
Head 8.139584 2.104957 11.708260
1651
root -6.265181 36.531195 1.726035 0.740591 31.591513 -2.575187
RightUpLeg -11.733442 -8.537657 12.750688
RightLeg 12.865240 -0.000000 -0.000000
RightFoot -17.196159 -29.465821 12.844996
RightToeBase 7.590767 -0.000000 -0.000000
LeftUpLeg 8.749365 11.810499 -5.191132
LeftLeg 38.040040 -0.000000 -0.000000
LeftFoot 0.685246 -8.490409 -30.485478
LeftToeBase -2.720644 -0.000000 0.000000
Spine 18.335942 -22.961975 0.722162
RightShoulder -8.583395 -16.289919 -19.479056
RightArm 6.180605 27.808298 58.768070
RightForeArm 13.049174 -0.000000 28.443619
RightHand 7.674904 -0.000000 -17.648414
RightHandThumb1 -24.326973 -0.000000 -32.862282
LeftShoulder -21.028530 32.640293 17.747797
LeftArm 55.806867 -41.076522 -53.303606
LeftForeArm 43.427148 -0.000000 24.252699
LeftHand -13.188384 0.000000 -0.269968
LeftHandThumb1 -26.253704 0.000000 33.147579
Head 8.132251 2.090858 11.265743
1652
root -6.170244 36.563237 1.773119 0.817663 31.660647 -2.329202
RightUpLeg -11.414738 -8.721362 12.442480
RightLeg 12.588346 -0.000000 -0.000000
RightFoot -17.034446 -29.481150 12.617183
RightToeBase 7.292265 -0.000000 -0.000000
LeftUpLeg 7.952899 12.171265 -4.632788
LeftLeg 39.659530 -0.000000 -0.000000
LeftFoot -0.531561 -8.302740 -29.821599
LeftToeBase -3.331419 -0.000000 0.000000
Spine 18.283189 -22.877006 0.452941
RightShoulder -8.590549 -16.410943 -19.449015
RightArm 6.284044 27.565256 58.844037
RightForeArm 12.958473 -0.000000 28.235425
RightHand 7.700195 -0.000000 -17.604627
RightHandThumb1 -24.326973 -0.000000 -32.862282
LeftShoulder -21.005992 32.746305 17.576553
LeftArm 55.807248 -40.709412 -53.548265
LeftForeArm 43.407860 -0.000000 24.131813
LeftHand -13.319524 -0.000000 -0.174843
LeftHandThumb1 -26.253704 0.000000 33.147579
Head 8.133775 2.167990 10.847368
